# WaveFront *.obj file (generated by CINEMA 4D)

mtllib ./Wall07.mtl

v -50.00000381469727 80 -0.00000381469727
v -50.00000381469727 80 -6.00000381469727
v -50 -0.00000270212945 -6.00000381469727
v -50 -0.00000270212945 -0.00000381469727
v 49.99999618530273 80 -0.00000381469727
v 49.99999618530273 80 -6.00000381469727
v 50 -0.00000270212945 -6.00000381469727
v 50 -0.00000270212945 -0.00000381469727
v 50.00000381469727 80 -40.00000381469727
v 50.00000381469727 80 -34.00000381469727
v 50 -0.00000270212945 -34.00000381469727
v 50 -0.00000270212945 -40.00000381469727
v -49.99999618530273 80 -40.00000381469727
v -49.99999618530273 80 -34.00000381469727
v -50 -0.00000270212945 -34.00000381469727
v -50 -0.00000270212945 -40.00000381469727
# 16 vertices

vn 0 1 0
vn 0 0 -1
vn 0 -1 -0
vn 0 -0 1
vn -1 0 0
vn 1 0 0
# 6 normals

vt 0.91528314352036 0.5920735001564 0
vt 0.91528314352036 0.60260903835297 0
vt 0.98551970720291 0.60260903835297 0
vt 0 1 0
vt 0.98551970720291 0.5920735001564 0
vt 0.91538298130035 0.67274582386017 0
vt 0.91538298130035 0.66221034526825 0
vt 0.84514629840851 0.66221034526825 0
vt 0.84514629840851 0.67274582386017 0
# 9 texture coordinates

o Wall07
usemtl Material #2
f 6/3/1 2/2/1 1/1/1
f 1/1/1 5/5/1 6/3/1
f 7/3/2 3/2/2 2/2/2
f 2/2/2 6/3/2 7/3/2
f 8/5/3 4/1/3 3/2/3
f 3/2/3 7/3/3 8/5/3
f 5/5/4 1/1/4 4/1/4
f 4/1/4 8/5/4 5/5/4
f 1/1/5 2/2/5 3/2/5
f 3/2/5 4/1/5 1/1/5
f 7/3/6 6/3/6 5/5/6
f 5/5/6 8/5/6 7/3/6
f 14/8/1 10/7/1 9/6/1
f 9/6/1 13/9/1 14/8/1
f 15/8/4 11/7/4 10/7/4
f 10/7/4 14/8/4 15/8/4
f 16/9/3 12/6/3 11/7/3
f 11/7/3 15/8/3 16/9/3
f 13/9/2 9/6/2 12/6/2
f 12/6/2 16/9/2 13/9/2
f 9/6/6 10/7/6 11/7/6
f 11/7/6 12/6/6 9/6/6
f 15/8/5 14/8/5 13/9/5
f 13/9/5 16/9/5 15/8/5

