# WaveFront *.obj file (generated by CINEMA 4D)

mtllib ./Wall03.mtl

v -50 80 40.00000381469727
v -50 80 34.00000381469727
v -50 0.00000051663909 34.00000381469727
v -50 0.00000051663909 40.00000381469727
v 49.99999618530273 80 40.00000381469727
v 49.99999618530273 80 34.00000381469727
v 50 0.00000051663909 34.00000381469727
v 50 0.00000051663909 40.00000381469727
# 8 vertices

vn 0 1 0
vn 0 0 -1
vn 0 -1 -0
vn 0 -0 1
vn -1 0 0
vn 1 0 0
# 6 normals

vt 0.77154046297073 0.5920735001564 0
vt 0.77154046297073 0.66231018304825 0
vt 0.84177702665329 0.66231018304825 0
vt 0 1 0
vt 0.84177702665329 0.5920735001564 0
# 5 texture coordinates

o Wall03
usemtl Material #2
f 6/3/1 2/2/1 1/1/1
f 1/1/1 5/5/1 6/3/1
f 7/3/2 3/2/2 2/2/2
f 2/2/2 6/3/2 7/3/2
f 8/5/3 4/1/3 3/2/3
f 3/2/3 7/3/3 8/5/3
f 5/5/4 1/1/4 4/1/4
f 4/1/4 8/5/4 5/5/4
f 1/1/5 2/2/5 3/2/5
f 3/2/5 4/1/5 1/1/5
f 7/3/6 6/3/6 5/5/6
f 5/5/6 8/5/6 7/3/6

