# WaveFront *.obj file (generated by CINEMA 4D)

mtllib ./Wall10.mtl

v 50.00000381469727 80 34.00000381469727
v 50.00000381469727 80 40.00000381469727
v 50 0.00000051663909 40.00000381469727
v 50 0.00000051663909 34.00000381469727
v 0.34498977661133 80 34.00000381469727
v 0.00000381469727 80 40.00000381469727
v 0 0.00000051663909 40.00000381469727
v 0.34498596191406 0.00000051750544 34.00000381469727
v -7.79302215576172 80 33.06106185913086
v -9.16534805297852 80 38.94253921508789
v -9.16535186767578 0.00000051663909 38.94253921508789
v -7.79302597045898 0.00000052008875 33.06106185913086
v -14.92857360839844 80 30.50787734985352
v -17.582275390625 80 35.93087387084961
v -17.582275390625 0.00000051663909 35.93087387084961
v -14.92857360839844 0.00000051991498 30.50787734985352
v -21.23298645019531 80 26.49748611450195
v -25.00959014892578 80 31.20617294311523
v -25.00959014892578 0.00000051663909 31.20617294311523
v -21.23298645019531 0.00000051979487 26.49748611450195
v -26.49747467041016 80 21.23298263549805
v -31.20616912841797 80 25.00958633422852
v -31.20616912841797 0.00000051663909 25.00958633422852
v -26.49748229980469 0.00000051979492 21.23298263549805
v -30.50785827636719 80 14.92856979370117
v -35.93086242675781 80 17.5822639465332
v -35.93086242675781 0.00000051663909 17.5822639465332
v -30.50786590576172 0.00000051991481 14.92856216430664
v -33.06105804443359 80 7.79302978515625
v -38.94253540039062 80 9.16535949707031
v -38.94253540039062 0.00000051663909 9.16535568237305
v -33.06105804443359 0.0000005200888 7.79302597045898
v -34 80 -0.34497833251953
v -40 80 0.00000762939408
v -40 0.00000051663909 0.00000381469658
v -34 0.00000051750544 -0.3449821472168
v -34 80 -49.99999237060547
v -40 80 -49.99999237060547
v -40 0.00000051663909 -49.99999618530273
v -34 0.00000051663909 -49.99999618530273
v 50.00000381469727 80.00000762939453 -0.00001144409271
v 50.00000381469727 80.00000762939453 5.9999885559082
v 50 0.0000091235579 6
v 50 0.00000814603391 -0.00000000000058
v 10.00000381469727 80.00000762939453 -0.00001144409271
v 9.655029296875 80.00000762939453 5.9999885559082
v 9.65502548217773 0.00000912269115 6
v 10 0.00000814603391 -0.00000000000058
v 7.70866394042969 80.00000762939453 -0.26438140869141
v 6.33626556396484 80.00000762939453 5.61708068847656
v 6.33626174926758 0.00000905772504 5.61709213256836
v 7.70866012573242 0.00000810296297 -0.26436996459961
v 5.60443496704102 80.00000762939453 -1.01729202270508
v 2.95068359375 80.00000762939453 4.40568161010742
v 2.95067977905273 0.00000886053658 4.40569305419922
v 5.60443115234375 0.0000079802976 -1.01728439331055
v 3.74760437011719 80.00000762939453 -2.19846725463867
v -0.02892684936523 80.00000762939453 2.51027679443359
v -0.0289306640625 0.0000085518559 2.51028823852539
v 3.74760437011719 0.00000778785943 -2.19845962524414
v 2.19845962524414 80.00000762939453 -3.74761199951172
v -2.51027679443359 80.00000762939453 0.02892684936523
v -2.51028060913086 0.00000814759278 0.0289421081543
v 2.19845581054688 0.00000753547147 -3.74760055541992
v 1.01728820800781 80.00000762939453 -5.60444259643555
v -4.40567016601562 80.00000762939453 -2.95064926147461
v -4.40567016601562 0.00000766203812 -2.95063781738281
v 1.01728439331055 0.00000723295534 -5.60443496704102
v 0.26436996459961 80.00000762939453 -7.70867156982422
v -5.61708831787109 80.00000762939453 -6.33626174926758
v -5.61708831787109 0.00000711027724 -6.33625030517578
v 0.26436614990234 0.00000689013268 -7.70866012573242
v 0 80.00000762939453 -10.00000762939453
v -6 80.00000762939453 -9.65502548217773
v -6 0.00000657216515 -9.65501403808594
v 0 0.00000651682649 -10
v 0 80 -50.00000762939453
v -6 80 -49.99999618530273
v -6 0.00000000000108 -49.9999885559082
v 0 -0.00000000000074 -50
# 80 vertices

vn 0 1 0
vn 0 -0 1
vn -0.05737550929189 -0 0.9983526468277
vn 0 -1 -0
vn 0 0 -1
vn 0.05737550929189 0 -0.9983526468277
vn -0.22722566127777 -0 0.97384214401245
vn 0.22722566127777 0 -0.97384214401245
vn -0.43953460454941 -0 0.89822566509247
vn 0.43953460454941 0 -0.89822566509247
vn -0.62565875053406 -0 0.78009688854218
vn 0.62565875053406 0 -0.78009688854218
vn -0.78009688854218 -0 0.62565875053406
vn 0.78009688854218 0 -0.62565875053406
vn -0.89822566509247 -0 0.43953460454941
vn 0.89822566509247 0 -0.43953460454941
vn -0.97384214401245 -0 0.22722566127777
vn 0.97384214401245 0 -0.22722566127777
vn -0.9983526468277 -0 0.05737550929189
vn 0.9983526468277 0 -0.05737550929189
vn -1 0 0
vn 1 0 0
vn 1 0 0
vn 0 0 -1
vn 0 -0 1
vn 0 -1 -0
vn 0 1 0
# 27 normals

vt 0.91538298130035 0.52315008640289 0
vt 0.91538298130035 0.51846760511398 0
vt 0.87636262178421 0.51846760511398 0
vt 0 1 0
vt 0.87663179636002 0.52315008640289 0
vt 0.86920994520187 0.51929289102554 0
vt 0.87028086185455 0.52388280630112 0
vt 0.86264127492905 0.52164322137833 0
vt 0.86471229791641 0.52587532997131 0
vt 0.85684496164322 0.52533036470413 0
vt 0.85979223251343 0.52900511026382 0
vt 0.8520091176033 0.53016620874405 0
vt 0.85568380355835 0.5331135392189 0
vt 0.84832191467285 0.53596258163452 0
vt 0.85255408287048 0.53803354501724 0
vt 0.85255402326584 0.53803354501724 0
vt 0.84597158432007 0.5425311923027 0
vt 0.85056149959564 0.54360216856003 0
vt 0.84514629840851 0.54968392848969 0
vt 0.84982872009277 0.54995316267014 0
vt 0.84514629840851 0.58870422840118 0
vt 0.84982872009277 0.58870422840118 0
vt 0.98690420389175 0.54540461301804 0
vt 0.98690420389175 0.52321720123291 0
vt 0.83771252632141 0.52321720123291 0
vt 0.83898824453354 0.54540461301804 0
vt 0.82544004917145 0.52463316917419 0
vt 0.83051514625549 0.54638224840164 0
vt 0.81292057037354 0.52911275625229 0
vt 0.82273387908936 0.5491663813591 0
vt 0.80190223455429 0.53612178564072 0
vt 0.81586754322052 0.55353432893753 0
vt 0.80190223455429 0.53612184524536 0
vt 0.79272651672363 0.54529762268066 0
vt 0.81013894081116 0.55926293134689 0
vt 0.78571754693985 0.55631577968597 0
vt 0.80577105283737 0.56612914800644 0
vt 0.80577105283737 0.56612926721573 0
vt 0.78123784065247 0.56883543729782 0
vt 0.80298686027527 0.57391041517258 0
vt 0.80298686027527 0.57391053438187 0
vt 0.77982181310654 0.58110791444778 0
vt 0.80200922489166 0.58238357305527 0
vt 0.77982181310654 0.73029953241348 0
vt 0.80200922489166 0.73029953241348 0
# 45 texture coordinates

o Wall010
usemtl Material #2
f 6/3/1 2/2/1 1/1/1
f 1/1/1 5/5/1 6/3/1
f 7/3/3 3/2/2 2/2/2
f 2/2/2 6/3/3 7/3/3
f 8/5/4 4/1/4 3/2/4
f 3/2/4 7/3/4 8/5/4
f 5/5/6 1/1/5 4/1/5
f 4/1/5 8/5/6 5/5/6
f 10/6/1 6/3/1 5/5/1
f 5/5/1 9/7/1 10/6/1
f 11/6/7 7/3/3 6/3/3
f 6/3/3 10/6/7 11/6/7
f 12/7/4 8/5/4 7/3/4
f 7/3/4 11/6/4 12/7/4
f 9/7/8 5/5/6 8/5/6
f 8/5/6 12/7/8 9/7/8
f 14/8/1 10/6/1 9/7/1
f 9/7/1 13/9/1 14/8/1
f 15/8/9 11/6/7 10/6/7
f 10/6/7 14/8/9 15/8/9
f 16/9/4 12/7/4 11/6/4
f 11/6/4 15/8/4 16/9/4
f 13/9/10 9/7/8 12/7/8
f 12/7/8 16/9/10 13/9/10
f 18/10/1 14/8/1 13/9/1
f 13/9/1 17/11/1 18/10/1
f 19/10/11 15/8/9 14/8/9
f 14/8/9 18/10/11 19/10/11
f 20/11/4 16/9/4 15/8/4
f 15/8/4 19/10/4 20/11/4
f 17/11/12 13/9/10 16/9/10
f 16/9/10 20/11/12 17/11/12
f 22/12/1 18/10/1 17/11/1
f 17/11/1 21/13/1 22/12/1
f 23/12/13 19/10/11 18/10/11
f 18/10/11 22/12/13 23/12/13
f 24/13/4 20/11/4 19/10/4
f 19/10/4 23/12/4 24/13/4
f 21/13/14 17/11/12 20/11/12
f 20/11/12 24/13/14 21/13/14
f 26/14/1 22/12/1 21/13/1
f 21/13/1 25/15/1 26/14/1
f 27/14/15 23/12/13 22/12/13
f 22/12/13 26/14/15 27/14/15
f 28/16/4 24/13/4 23/12/4
f 23/12/4 27/14/4 28/16/4
f 25/15/16 21/13/14 24/13/14
f 24/13/14 28/16/16 25/15/16
f 30/17/1 26/14/1 25/15/1
f 25/15/1 29/18/1 30/17/1
f 31/17/17 27/14/15 26/14/15
f 26/14/15 30/17/17 31/17/17
f 32/18/4 28/16/4 27/14/4
f 27/14/4 31/17/4 32/18/4
f 29/18/18 25/15/16 28/16/16
f 28/16/16 32/18/18 29/18/18
f 34/19/1 30/17/1 29/18/1
f 29/18/1 33/20/1 34/19/1
f 35/19/19 31/17/17 30/17/17
f 30/17/17 34/19/19 35/19/19
f 36/20/4 32/18/4 31/17/4
f 31/17/4 35/19/4 36/20/4
f 33/20/20 29/18/18 32/18/18
f 32/18/18 36/20/20 33/20/20
f 38/21/1 34/19/1 33/20/1
f 33/20/1 37/22/1 38/21/1
f 39/21/21 35/19/19 34/19/19
f 34/19/19 38/21/21 39/21/21
f 40/22/4 36/20/4 35/19/4
f 35/19/4 39/21/4 40/22/4
f 37/22/22 33/20/20 36/20/20
f 36/20/20 40/22/22 37/22/22
f 1/1/23 2/2/23 3/2/23
f 3/2/23 4/1/23 1/1/23
f 39/21/24 38/21/24 37/22/24
f 37/22/24 40/22/24 39/21/24
f 46/25/1 42/24/1 41/23/1
f 41/23/1 45/26/1 46/25/1
f 47/25/3 43/24/25 42/24/25
f 42/24/25 46/25/3 47/25/3
f 48/26/26 44/23/26 43/24/26
f 43/24/26 47/25/26 48/26/26
f 45/26/6 41/23/24 44/23/24
f 44/23/24 48/26/6 45/26/6
f 50/27/1 46/25/1 45/26/1
f 45/26/1 49/28/1 50/27/1
f 51/27/7 47/25/3 46/25/3
f 46/25/3 50/27/7 51/27/7
f 52/28/26 48/26/26 47/25/26
f 47/25/26 51/27/26 52/28/26
f 49/28/8 45/26/6 48/26/6
f 48/26/6 52/28/8 49/28/8
f 54/29/1 50/27/1 49/28/1
f 49/28/1 53/30/1 54/29/1
f 55/29/9 51/27/7 50/27/7
f 50/27/7 54/29/9 55/29/9
f 56/30/26 52/28/26 51/27/26
f 51/27/26 55/29/26 56/30/26
f 53/30/10 49/28/8 52/28/8
f 52/28/8 56/30/10 53/30/10
f 58/31/1 54/29/1 53/30/1
f 53/30/1 57/32/1 58/31/1
f 59/33/11 55/29/9 54/29/9
f 54/29/9 58/31/11 59/33/11
f 60/32/26 56/30/26 55/29/26
f 55/29/26 59/33/26 60/32/26
f 57/32/12 53/30/10 56/30/10
f 56/30/10 60/32/12 57/32/12
f 62/34/1 58/31/1 57/32/1
f 57/32/1 61/35/1 62/34/1
f 63/34/13 59/33/11 58/31/11
f 58/31/11 62/34/13 63/34/13
f 64/35/26 60/32/26 59/33/26
f 59/33/26 63/34/26 64/35/26
f 61/35/14 57/32/12 60/32/12
f 60/32/12 64/35/14 61/35/14
f 66/36/1 62/34/1 61/35/1
f 61/35/1 65/37/1 66/36/1
f 67/36/15 63/34/13 62/34/13
f 62/34/13 66/36/15 67/36/15
f 68/38/26 64/35/26 63/34/26
f 63/34/26 67/36/26 68/38/26
f 65/37/16 61/35/14 64/35/14
f 64/35/14 68/38/16 65/37/16
f 70/39/1 66/36/1 65/37/1
f 65/37/1 69/40/1 70/39/1
f 71/39/17 67/36/15 66/36/15
f 66/36/15 70/39/17 71/39/17
f 72/41/26 68/38/26 67/36/26
f 67/36/26 71/39/26 72/41/26
f 69/40/18 65/37/16 68/38/16
f 68/38/16 72/41/18 69/40/18
f 74/42/27 70/39/1 69/40/1
f 69/40/1 73/43/27 74/42/27
f 75/42/19 71/39/17 70/39/17
f 70/39/17 74/42/19 75/42/19
f 76/43/26 72/41/26 71/39/26
f 71/39/26 75/42/26 76/43/26
f 73/43/20 69/40/18 72/41/18
f 72/41/18 76/43/20 73/43/20
f 78/44/27 74/42/27 73/43/27
f 73/43/27 77/45/27 78/44/27
f 79/44/21 75/42/19 74/42/19
f 74/42/19 78/44/21 79/44/21
f 80/45/26 76/43/26 75/42/26
f 75/42/26 79/44/26 80/45/26
f 77/45/22 73/43/20 76/43/20
f 76/43/20 80/45/22 77/45/22
f 41/23/23 42/24/23 43/24/23
f 43/24/23 44/23/23 41/23/23
f 79/44/24 78/44/24 77/45/24
f 77/45/24 80/45/24 79/44/24

