# WaveFront *.obj file (generated by CINEMA 4D)

mtllib ./Wall09.mtl

v 6 80 50.00000381469727
v 0 80 50.00000381469727
v 0 -0 50
v 6 -0 50
v 6 80 -49.99999618530273
v 0 80 -49.99999618530273
v 0 0 -50
v 6 0 -50
v 49.99998092651367 80 33.99999237060547
v 50.00000381469727 80 40
v 50 -0 40
v 49.99997711181641 -0 33.99999237060547
v 46.33615112304688 80 34.3829345703125
v 47.70867156982422 80 40.26436996459961
v 47.70866775512695 -0 40.26436996459961
v 46.33614730834961 -0.00000001242407 34.38293838500977
v 42.95084762573242 80 35.59423828125
v 45.60444641113281 80 41.01728439331055
v 45.60444259643555 -0 41.01728820800781
v 42.95084381103516 -0.00000003408315 35.59423828125
v 39.97127914428711 80 37.48954391479492
v 43.74761199951172 80 42.19845199584961
v 43.74760818481445 -0 42.19845581054688
v 39.97127532958984 -0.00000005073385 37.48954772949219
v 37.48954391479492 80 39.97127914428711
v 42.19845962524414 80 43.74760055541992
v 42.19845581054688 -0 43.74760437011719
v 37.48954010009766 -0.00000006202463 39.97128295898438
v 35.5942268371582 80 42.95084381103516
v 41.01728439331055 80 45.60442733764648
v 41.01728439331055 -0 45.60443115234375
v 35.5942268371582 -0.00000006761334 42.95084762573242
v 34.3829345703125 80 46.33615112304688
v 40.26436996459961 80 47.70866012573242
v 40.26436996459961 -0 47.70866394042969
v 34.3829345703125 -0.00000006701441 46.33615493774414
v 33.9999885559082 80 50
v 40 80 49.99999618530273
v 40 -0 50
v 33.9999885559082 -0 50.00000381469727
v 33.9999885559082 80 -50.00000381469727
v 40 80 -50.0000114440918
v 40 0 -50
v 33.99999237060547 0 -49.99999237060547
v 34.3829345703125 80 -46.33615493774414
v 40.26436614990234 80 -47.70867538452148
v 40.26436996459961 0 -47.70866394042969
v 34.38293838500977 0.00000003864799 -46.33614349365234
v 35.59423446655273 80 -42.95085144042969
v 41.01728439331055 80 -45.60444641113281
v 41.01728820800781 0 -45.60443496704102
v 35.59423828125 0.00000011143945 -42.95083999633789
v 37.48954391479492 80 -39.97128295898438
v 42.19844818115234 80 -43.74761581420898
v 42.19845581054688 0 -43.74760437011719
v 37.48954772949219 0.00000017523178 -39.97127151489258
v 39.97127532958984 80 -37.48955154418945
v 43.74759674072266 80 -42.19846343994141
v 43.74760437011719 0 -42.19845581054688
v 39.97128295898438 0.00000022821249 -37.48954391479492
v 42.95083618164062 80 -35.59423065185547
v 45.60442352294922 80 -41.01728820800781
v 45.60443115234375 0 -41.01728057861328
v 42.95084381103516 0.00000026877456 -35.59422302246094
v 46.33614730834961 80 -34.38294219970703
v 47.70865631103516 80 -40.26437759399414
v 47.70866394042969 0 -40.26436996459961
v 46.33615493774414 0.00000029480208 -34.3829345703125
v 49.99998092651367 80 -33.99999237060547
v 49.99999237060547 80 -40.00000381469727
v 50 0 -40
v 49.9999885559082 0 -33.9999885559082
# 72 vertices

vn 0 1 0
vn -1 0 0
vn 0 -1 -0
vn 1 0 0
vn 0 -0 1
vn 0 0 -1
vn 0.11459445953369 -0 0.99341237545013
vn 0.22722566127777 -0 0.97384214401245
vn -0.103939704597 0 -0.99458360671997
vn -0.22200334072113 0 -0.97504591941834
vn 0.43953460454941 -0 0.89822566509247
vn -0.43953460454941 0 -0.89822566509247
vn 0.62565875053406 -0 0.78009688854218
vn 0 -1 -0
vn -0.62563973665237 0 -0.78011208772659
vn 0.78009688854218 -0 0.62565875053406
vn -0.78011208772659 0 -0.62563973665237
vn 0.89822566509247 -0 0.43953460454941
vn -0.89822566509247 0 -0.43953460454941
vn 0.97384214401245 -0 0.22722566127777
vn -0.97504591941834 0 -0.22200334072113
vn 0.99341237545013 -0 0.11459445953369
vn -0.99458360671997 0 -0.103939704597
vn 1 0 0
vn 0.99341237545013 0 -0.11459445953369
vn 0.97384214401245 0 -0.22722566127777
vn -0.99458360671997 -0 0.103939704597
vn -0.97504591941834 -0 0.22200334072113
vn 0.89822566509247 0 -0.43953460454941
vn -0.89822566509247 -0 0.43953460454941
vn 0.78009688854218 0 -0.62565875053406
vn -0.78011208772659 -0 0.62563973665237
vn 0.62565875053406 0 -0.78009688854218
vn -0.62565875053406 -0 0.78009688854218
vn -0.62563973665237 -0 0.78011208772659
vn 0.43953460454941 0 -0.89822566509247
vn -0.43953460454941 -0 0.89822566509247
vn 0.22722566127777 0 -0.97384214401245
vn -0.22200334072113 -0 0.97504591941834
vn 0.11459445953369 0 -0.99341237545013
vn -0.103939704597 -0 0.99458360671997
# 41 normals

vt 0.92667537927628 0.51846760511398 0
vt 0.91875219345093 0.51846760511398 0
vt 0.91875219345093 0.58449417352676 0
vt 0 1 0
vt 0.92667537927628 0.58449417352676 0
vt 0.86836218833923 0.71460860967636 0
vt 0.86836218833923 0.71025568246841 0
vt 0.86503756046295 0.71006387472153 0
vt 0.86304605007172 0.71433085203171 0
vt 0.86198431253433 0.70951765775681 0
vt 0.85813397169113 0.71345204114914 0
vt 0.8592900633812 0.70866066217422 0
vt 0.85381060838699 0.71207696199417 0
vt 0.85704219341278 0.70753675699234 0
vt 0.85020965337753 0.7102764248848 0
vt 0.85532838106155 0.70618969202042 0
vt 0.84745955467224 0.70811480283737 0
vt 0.85423588752747 0.70466297864914 0
vt 0.84570199251175 0.70565873384476 0
vt 0.85385227203369 0.70300072431564 0
vt 0.84514629840851 0.70300072431564 0
vt 0.84514629840851 0.70300060510635 0
vt 0.93004465103149 0.53007560968399 0
vt 0.93875062465668 0.53007560968399 0
vt 0.93913424015045 0.5284132361412 0
vt 0.93060028553009 0.52741748094559 0
vt 0.93875062465668 0.53007555007935 0
vt 0.93004465103149 0.53007555007935 0
vt 0.94022673368454 0.52688664197922 0
vt 0.93235790729523 0.52496141195297 0
vt 0.94194054603577 0.525539457798 0
vt 0.93510800600052 0.52279978990555 0
vt 0.94418829679489 0.52441555261612 0
vt 0.93870896100998 0.52099925279617 0
vt 0.94418841600418 0.52441555261612 0
vt 0.94688260555267 0.52355867624283 0
vt 0.94303226470947 0.51962423324585 0
vt 0.94303232431412 0.51962423324585 0
vt 0.94993579387665 0.52301239967346 0
vt 0.94794428348541 0.51874548196793 0
vt 0.9479444026947 0.51874548196793 0
vt 0.95326054096222 0.52282065153122 0
vt 0.95326054096222 0.51846760511398 0
# 43 texture coordinates

o Wall09
usemtl Material #2
f 6/3/1 2/2/1 1/1/1
f 1/1/1 5/5/1 6/3/1
f 7/3/2 3/2/2 2/2/2
f 2/2/2 6/3/2 7/3/2
f 8/5/3 4/1/3 3/2/3
f 3/2/3 7/3/3 8/5/3
f 5/5/4 1/1/4 4/1/4
f 4/1/4 8/5/4 5/5/4
f 1/1/5 2/2/5 3/2/5
f 3/2/5 4/1/5 1/1/5
f 7/3/6 6/3/6 5/5/6
f 5/5/6 8/5/6 7/3/6
f 14/8/1 10/7/1 9/6/1
f 9/6/1 13/9/1 14/8/1
f 15/8/8 11/7/7 10/7/7
f 10/7/7 14/8/8 15/8/8
f 16/9/3 12/6/3 11/7/3
f 11/7/3 15/8/3 16/9/3
f 13/9/10 9/6/9 12/6/9
f 12/6/9 16/9/10 13/9/10
f 18/10/1 14/8/1 13/9/1
f 13/9/1 17/11/1 18/10/1
f 19/10/11 15/8/8 14/8/8
f 14/8/8 18/10/11 19/10/11
f 20/11/3 16/9/3 15/8/3
f 15/8/3 19/10/3 20/11/3
f 17/11/12 13/9/10 16/9/10
f 16/9/10 20/11/12 17/11/12
f 22/12/1 18/10/1 17/11/1
f 17/11/1 21/13/1 22/12/1
f 23/12/13 19/10/11 18/10/11
f 18/10/11 22/12/13 23/12/13
f 24/13/14 20/11/3 19/10/3
f 19/10/3 23/12/3 24/13/14
f 21/13/15 17/11/12 20/11/12
f 20/11/12 24/13/15 21/13/15
f 26/14/1 22/12/1 21/13/1
f 21/13/1 25/15/1 26/14/1
f 27/14/16 23/12/13 22/12/13
f 22/12/13 26/14/16 27/14/16
f 28/15/3 24/13/14 23/12/3
f 23/12/3 27/14/14 28/15/3
f 25/15/17 21/13/15 24/13/15
f 24/13/15 28/15/17 25/15/17
f 30/16/1 26/14/1 25/15/1
f 25/15/1 29/17/1 30/16/1
f 31/16/18 27/14/16 26/14/16
f 26/14/16 30/16/18 31/16/18
f 32/17/3 28/15/3 27/14/14
f 27/14/14 31/16/3 32/17/3
f 29/17/19 25/15/17 28/15/17
f 28/15/17 32/17/19 29/17/19
f 34/18/1 30/16/1 29/17/1
f 29/17/1 33/19/1 34/18/1
f 35/18/20 31/16/18 30/16/18
f 30/16/18 34/18/20 35/18/20
f 36/19/3 32/17/3 31/16/3
f 31/16/3 35/18/3 36/19/3
f 33/19/21 29/17/19 32/17/19
f 32/17/19 36/19/21 33/19/21
f 38/20/1 34/18/1 33/19/1
f 33/19/1 37/21/1 38/20/1
f 39/20/22 35/18/20 34/18/20
f 34/18/20 38/20/22 39/20/22
f 40/22/3 36/19/3 35/18/3
f 35/18/3 39/20/3 40/22/3
f 37/21/23 33/19/21 36/19/21
f 36/19/21 40/22/23 37/21/23
f 9/6/24 10/7/24 11/7/24
f 11/7/24 12/6/24 9/6/24
f 39/20/5 38/20/5 37/21/5
f 37/21/5 40/22/5 39/20/5
f 46/25/1 42/24/1 41/23/1
f 41/23/1 45/26/1 46/25/1
f 47/25/26 43/27/25 42/24/25
f 42/24/25 46/25/26 47/25/26
f 48/26/3 44/28/3 43/27/3
f 43/27/3 47/25/3 48/26/3
f 45/26/28 41/23/27 44/28/27
f 44/28/27 48/26/28 45/26/28
f 50/29/1 46/25/1 45/26/1
f 45/26/1 49/30/1 50/29/1
f 51/29/29 47/25/26 46/25/26
f 46/25/26 50/29/29 51/29/29
f 52/30/14 48/26/3 47/25/3
f 47/25/3 51/29/14 52/30/14
f 49/30/30 45/26/28 48/26/28
f 48/26/28 52/30/30 49/30/30
f 54/31/1 50/29/1 49/30/1
f 49/30/1 53/32/1 54/31/1
f 55/31/31 51/29/29 50/29/29
f 50/29/29 54/31/31 55/31/31
f 56/32/14 52/30/14 51/29/14
f 51/29/14 55/31/14 56/32/14
f 53/32/32 49/30/30 52/30/30
f 52/30/30 56/32/32 53/32/32
f 58/33/1 54/31/1 53/32/1
f 53/32/1 57/34/1 58/33/1
f 59/35/33 55/31/31 54/31/31
f 54/31/31 58/33/33 59/35/33
f 60/34/14 56/32/14 55/31/14
f 55/31/14 59/35/14 60/34/14
f 57/34/34 53/32/32 56/32/32
f 56/32/32 60/34/35 57/34/34
f 62/36/1 58/33/1 57/34/1
f 57/34/1 61/37/1 62/36/1
f 63/36/36 59/35/33 58/33/33
f 58/33/33 62/36/36 63/36/36
f 64/38/14 60/34/14 59/35/14
f 59/35/14 63/36/14 64/38/14
f 61/37/37 57/34/34 60/34/35
f 60/34/35 64/38/37 61/37/37
f 66/39/1 62/36/1 61/37/1
f 61/37/1 65/40/1 66/39/1
f 67/39/38 63/36/36 62/36/36
f 62/36/36 66/39/38 67/39/38
f 68/41/14 64/38/14 63/36/14
f 63/36/14 67/39/14 68/41/14
f 65/40/39 61/37/37 64/38/37
f 64/38/37 68/41/39 65/40/39
f 70/42/1 66/39/1 65/40/1
f 65/40/1 69/43/1 70/42/1
f 71/42/40 67/39/38 66/39/38
f 66/39/38 70/42/40 71/42/40
f 72/43/14 68/41/14 67/39/14
f 67/39/14 71/42/3 72/43/14
f 69/43/41 65/40/39 68/41/39
f 68/41/39 72/43/41 69/43/41
f 41/23/6 42/24/6 43/27/6
f 43/27/6 44/28/6 41/23/6
f 71/42/24 70/42/24 69/43/24
f 69/43/24 72/43/24 71/42/24

