# WaveFront *.obj file (generated by CINEMA 4D)

mtllib ./Wall05.mtl

v 50.0000114440918 80 34.00000762939453
v 50 80 40.00000381469727
v 49.99999618530273 -0.00000051664034 40.00000381469727
v 50.00000762939453 -0.00000051664034 34.00000762939453
v 46.33626174926758 80 34.38291168212891
v 47.70866394042969 80 40.26437377929688
v 47.70866012573242 -0.00000051664034 40.26437377929688
v 46.33625793457031 -0.00000052170805 34.38291168212891
v 42.95067977905273 80 35.59431076049805
v 45.60443496704102 80 41.01728439331055
v 45.60443115234375 -0.00000051664034 41.01728820800781
v 42.95067596435547 -0.00000053125655 35.59431076049805
v 39.97104263305664 80 37.4897346496582
v 43.74760437011719 80 42.19845962524414
v 43.74760055541992 -0.00000051664034 42.19846343994141
v 39.97103881835938 -0.00000053962327 37.48973846435547
v 37.48971939086914 80 39.97106552124023
v 42.19845581054688 80 43.74760437011719
v 42.19845581054688 -0.00000051664034 43.74760818481445
v 37.48971939086914 -0.00000054656857 39.9710693359375
v 35.59431457519531 80 42.9506721496582
v 41.01728439331055 80 45.60443496704102
v 41.01728439331055 -0.00000051664034 45.60443878173828
v 35.59431457519531 -0.00000055188883 42.95067596435547
v 34.38290786743164 80 46.33625411987305
v 40.26436614990234 80 47.70866394042969
v 40.26436614990234 -0.00000051664034 47.70866775512695
v 34.38290786743164 -0.00000055530313 46.33625793457031
v 34.00000762939453 80 50.00000762939453
v 40 80 50
v 40 -0.00000051664034 50.00000381469727
v 34.00000762939453 -0.00000051664034 50.0000114440918
v -34 80 50.00001907348633
v -40 80 50.00002288818359
v -40 -0.00000051664034 50.00001907348633
v -34 -0.00000051664034 50.00001907348633
v -34.00000762939453 80 0.34500727057457
v -40.00000762939453 80 0.0000222922572
v -40.00000762939453 -0.00000051664034 0.00001847755993
v -34.00000762939453 -0.00000051577399 0.3450034558773
v -33.06106567382812 80 -7.79300498962402
v -38.94254684448242 80 -9.1653299331665
v -38.94254684448242 -0.00000051664034 -9.16533374786377
v -33.06106567382812 -0.00000051319068 -7.79300880432129
v -30.50788497924805 80 -14.92855644226074
v -35.93088150024414 80 -17.5822582244873
v -35.93088150024414 -0.00000051664034 -17.5822582244873
v -30.50788497924805 -0.00000051336445 -14.92855644226074
v -26.49749374389648 80 -21.23296928405762
v -31.20618057250977 80 -25.00957298278809
v -31.20618057250977 -0.00000051664034 -25.00957298278809
v -26.49749374389648 -0.00000051348451 -21.23296928405762
v -21.23299217224121 80 -26.49745941162109
v -25.00959587097168 80 -31.20615386962891
v -25.00959587097168 -0.00000051664034 -31.20615386962891
v -21.23299217224121 -0.00000051348451 -26.49746704101562
v -14.92857933044434 80 -30.50784301757812
v -17.58227348327637 80 -35.93084716796875
v -17.58227348327637 -0.00000051664034 -35.93084716796875
v -14.9285717010498 -0.00000051336457 -30.50785064697266
v -7.79303932189941 80 -33.0610466003418
v -9.16536998748779 80 -38.94252014160156
v -9.16536617279053 -0.00000051664034 -38.94252014160156
v -7.79303550720215 -0.00000051319063 -33.0610466003418
v 0.34496846795082 80 -33.9999885559082
v -0.00001847755811 80 -39.9999885559082
v -0.00001466286085 -0.00000051664034 -39.9999885559082
v 0.34497228264809 -0.00000051577399 -33.9999885559082
v 49.99998474121094 80 -33.99999618530273
v 49.99998092651367 80 -39.99999618530273
v 49.99998474121094 -0.00000051664034 -39.99999618530273
v 49.9999885559082 -0.00000051664034 -33.99999618530273
# 72 vertices

vn 0 1 0
vn 0.1145946085453 -0 0.99341231584549
vn 0.22722582519054 -0 0.97384208440781
vn 0 -1 -0
vn -0.10393986850977 0 -0.99458360671997
vn -0.22200348973274 0 -0.97504585981369
vn 0.43953475356102 -0 0.89822560548782
vn -0.43953475356102 0 -0.89822560548782
vn 0.62565886974335 -0 0.78009676933289
vn -0.62565886974335 0 -0.78009676933289
vn 0.78009694814682 -0 0.62565863132477
vn -0.78009694814682 0 -0.62565863132477
vn 0.89822572469711 -0 0.43953448534012
vn -0.89822572469711 0 -0.43953448534012
vn 0.97384214401245 -0 0.22722551226616
vn 0 -1 -0
vn -0.97504591941834 0 -0.22200317680836
vn 0.99341237545013 -0 0.11459428817034
vn -0.99458360671997 0 -0.10393954068422
vn 1 0 -0.00000016292068
vn 0.00000016292068 -0 1
vn -1 -0 0.00000016292068
vn -0.99835270643234 0 -0.0573753491044
vn 1 0 -0.00000016292068
vn 0.99835270643234 -0 0.0573753491044
vn -0.97384214401245 0 -0.22722551226616
vn -0.22722582519054 0 -0.97384208440781
vn -0.05737567320466 0 -0.9983526468277
vn 0.05737567320466 -0 0.9983526468277
vn -0.00000016292068 0 -1
vn 0.00000016292068 -0 1
# 31 normals

vt 0.91528314352036 0.62778621912003 0
vt 0.92022216320038 0.62778609991074 0
vt 0.9204398393631 0.62589997053146 0
vt 0 1 0
vt 0.91559827327728 0.62477022409439 0
vt 0.9204398393631 0.62589991092682 0
vt 0.91528314352036 0.62778609991074 0
vt 0.92105960845947 0.62416779994965 0
vt 0.91659551858902 0.62198328971863 0
vt 0.92203193902969 0.62263929843903 0
vt 0.91815578937531 0.61953055858612 0
vt 0.92330712080002 0.62136405706406 0
vt 0.92019838094711 0.61748796701431 0
vt 0.92483562231064 0.62039178609848 0
vt 0.92265111207962 0.61592769622803 0
vt 0.92656773328781 0.61977201700211 0
vt 0.92543804645538 0.61493057012558 0
vt 0.92845392227173 0.61955434083939 0
vt 0.92845392227173 0.61461526155472 0
vt 0.91191387176514 0.59652471542358 0
vt 0.91191387176514 0.5920735001564 0
vt 0.87482076883316 0.5920735001564 0
vt 0.87507677078247 0.59652471542358 0
vt 0.86802136898041 0.59285801649094 0
vt 0.86903941631317 0.59722131490707 0
vt 0.86177718639374 0.5950922369957 0
vt 0.86374586820602 0.5991153717041 0
vt 0.85626715421677 0.59859728813171 0
vt 0.85906887054443 0.60209053754807 0
vt 0.85167014598846 0.60319435596466 0
vt 0.85516333580017 0.60599607229233 0
vt 0.84816509485245 0.60870438814163 0
vt 0.85218816995621 0.61067301034927 0
vt 0.85218816995621 0.61067312955856 0
vt 0.84593081474304 0.6149485707283 0
vt 0.85029405355453 0.61596661806107 0
vt 0.84514629840851 0.62174791097641 0
vt 0.84959751367569 0.62200397253036 0
vt 0.84514629840851 0.65884101390839 0
vt 0.84959751367569 0.65884101390839 0
# 40 texture coordinates

o Wall05
usemtl Material #2
f 6/3/1 2/2/1 1/1/1
f 1/1/1 5/5/1 6/3/1
f 7/6/3 3/2/2 2/2/2
f 2/2/2 6/3/3 7/6/3
f 8/5/4 4/7/4 3/2/4
f 3/2/4 7/6/4 8/5/4
f 5/5/6 1/1/5 4/7/5
f 4/7/5 8/5/6 5/5/6
f 10/8/1 6/3/1 5/5/1
f 5/5/1 9/9/1 10/8/1
f 11/8/7 7/6/3 6/3/3
f 6/3/3 10/8/7 11/8/7
f 12/9/4 8/5/4 7/6/4
f 7/6/4 11/8/4 12/9/4
f 9/9/8 5/5/6 8/5/6
f 8/5/6 12/9/8 9/9/8
f 14/10/1 10/8/1 9/9/1
f 9/9/1 13/11/1 14/10/1
f 15/10/9 11/8/7 10/8/7
f 10/8/7 14/10/9 15/10/9
f 16/11/4 12/9/4 11/8/4
f 11/8/4 15/10/4 16/11/4
f 13/11/10 9/9/8 12/9/8
f 12/9/8 16/11/10 13/11/10
f 18/12/1 14/10/1 13/11/1
f 13/11/1 17/13/1 18/12/1
f 19/12/11 15/10/9 14/10/9
f 14/10/9 18/12/11 19/12/11
f 20/13/4 16/11/4 15/10/4
f 15/10/4 19/12/4 20/13/4
f 17/13/12 13/11/10 16/11/10
f 16/11/10 20/13/12 17/13/12
f 22/14/1 18/12/1 17/13/1
f 17/13/1 21/15/1 22/14/1
f 23/14/13 19/12/11 18/12/11
f 18/12/11 22/14/13 23/14/13
f 24/15/4 20/13/4 19/12/4
f 19/12/4 23/14/4 24/15/4
f 21/15/14 17/13/12 20/13/12
f 20/13/12 24/15/14 21/15/14
f 26/16/1 22/14/1 21/15/1
f 21/15/1 25/17/1 26/16/1
f 27/16/15 23/14/13 22/14/13
f 22/14/13 26/16/15 27/16/15
f 28/17/16 24/15/4 23/14/4
f 23/14/4 27/16/4 28/17/16
f 25/17/17 21/15/14 24/15/14
f 24/15/14 28/17/17 25/17/17
f 30/18/1 26/16/1 25/17/1
f 25/17/1 29/19/1 30/18/1
f 31/18/18 27/16/15 26/16/15
f 26/16/15 30/18/18 31/18/18
f 32/19/4 28/17/16 27/16/4
f 27/16/4 31/18/4 32/19/4
f 29/19/19 25/17/17 28/17/17
f 28/17/17 32/19/19 29/19/19
f 1/1/20 2/2/20 3/2/20
f 3/2/20 4/7/20 1/1/20
f 31/18/21 30/18/21 29/19/21
f 29/19/21 32/19/21 31/18/21
f 38/22/1 34/21/1 33/20/1
f 33/20/1 37/23/1 38/22/1
f 39/22/23 35/21/22 34/21/22
f 34/21/22 38/22/23 39/22/23
f 40/23/4 36/20/4 35/21/4
f 35/21/4 39/22/4 40/23/4
f 37/23/25 33/20/24 36/20/24
f 36/20/24 40/23/25 37/23/25
f 42/24/1 38/22/1 37/23/1
f 37/23/1 41/25/1 42/24/1
f 43/24/26 39/22/23 38/22/23
f 38/22/23 42/24/26 43/24/26
f 44/25/4 40/23/4 39/22/4
f 39/22/4 43/24/4 44/25/4
f 41/25/15 37/23/25 40/23/25
f 40/23/25 44/25/15 41/25/15
f 46/26/1 42/24/1 41/25/1
f 41/25/1 45/27/1 46/26/1
f 47/26/14 43/24/26 42/24/26
f 42/24/26 46/26/14 47/26/14
f 48/27/4 44/25/4 43/24/4
f 43/24/4 47/26/4 48/27/4
f 45/27/13 41/25/15 44/25/15
f 44/25/15 48/27/13 45/27/13
f 50/28/1 46/26/1 45/27/1
f 45/27/1 49/29/1 50/28/1
f 51/28/12 47/26/14 46/26/14
f 46/26/14 50/28/12 51/28/12
f 52/29/4 48/27/4 47/26/4
f 47/26/4 51/28/4 52/29/4
f 49/29/11 45/27/13 48/27/13
f 48/27/13 52/29/11 49/29/11
f 54/30/1 50/28/1 49/29/1
f 49/29/1 53/31/1 54/30/1
f 55/30/10 51/28/12 50/28/12
f 50/28/12 54/30/10 55/30/10
f 56/31/4 52/29/4 51/28/4
f 51/28/4 55/30/4 56/31/4
f 53/31/9 49/29/11 52/29/11
f 52/29/11 56/31/9 53/31/9
f 58/32/1 54/30/1 53/31/1
f 53/31/1 57/33/1 58/32/1
f 59/32/8 55/30/10 54/30/10
f 54/30/10 58/32/8 59/32/8
f 60/34/4 56/31/4 55/30/4
f 55/30/4 59/32/4 60/34/4
f 57/33/7 53/31/9 56/31/9
f 56/31/9 60/34/7 57/33/7
f 62/35/1 58/32/1 57/33/1
f 57/33/1 61/36/1 62/35/1
f 63/35/27 59/32/8 58/32/8
f 58/32/8 62/35/27 63/35/27
f 64/36/4 60/34/4 59/32/4
f 59/32/4 63/35/4 64/36/4
f 61/36/3 57/33/7 60/34/7
f 60/34/7 64/36/3 61/36/3
f 66/37/1 62/35/1 61/36/1
f 61/36/1 65/38/1 66/37/1
f 67/37/28 63/35/27 62/35/27
f 62/35/27 66/37/28 67/37/28
f 68/38/4 64/36/4 63/35/4
f 63/35/4 67/37/4 68/38/4
f 65/38/29 61/36/3 64/36/3
f 64/36/3 68/38/29 65/38/29
f 70/39/1 66/37/1 65/38/1
f 65/38/1 69/40/1 70/39/1
f 71/39/30 67/37/28 66/37/28
f 66/37/28 70/39/30 71/39/30
f 72/40/4 68/38/4 67/37/4
f 67/37/4 71/39/4 72/40/4
f 69/40/31 65/38/29 68/38/29
f 68/38/29 72/40/31 69/40/31
f 33/20/21 34/21/21 35/21/21
f 35/21/21 36/20/21 33/20/21
f 71/39/20 70/39/20 69/40/20
f 69/40/20 72/40/20 71/39/20

